<svg xmlns="http://www.w3.org/2000/svg" version="1.1" xmlns:xlink="http://www.w3.org/1999/xlink" xmlns:svgjs="http://svgjs.com/svgjs" width="3000" height="1500" preserveAspectRatio="none" viewBox="0 0 3000 1500"><g mask="url(&quot;#SvgjsMask15014&quot;)" fill="none"><rect width="893.76" height="893.76" clip-path="url(&quot;#SvgjsClipPath15015&quot;)" x="-157.13" y="-217.16" fill="url(#SvgjsPattern15016)" transform="rotate(135.98, 289.75, 229.72)"></rect><rect width="792" height="792" clip-path="url(&quot;#SvgjsClipPath15017&quot;)" x="1870.99" y="-10.46" fill="url(#SvgjsPattern15018)" transform="rotate(250.57, 2266.99, 385.54)"></rect><path d="M1212.8 396.4L1220.35 386.05 1232.1 391.14 1239.64 380.79 1251.39 385.88 1258.94 375.54 1270.69 380.63M1214.9 404.12L1222.45 393.77 1234.2 398.86 1241.75 388.51 1253.5 393.6 1261.04 383.26 1272.79 388.35M1217.01 411.84L1224.55 401.49 1236.3 406.58 1243.85 396.23 1255.6 401.32 1263.15 390.97 1274.9 396.06" stroke="rgba(64, 68, 72, 1)" stroke-width="1.54" stroke-dasharray="3, 3"></path><rect width="132.6" height="132.6" clip-path="url(&quot;#SvgjsClipPath15019&quot;)" x="1621.68" y="1366.7" fill="url(#SvgjsPattern15020)" transform="rotate(68.82, 1687.98, 1433)"></rect><rect width="278.8" height="278.8" clip-path="url(&quot;#SvgjsClipPath15021&quot;)" x="563.72" y="916.23" fill="url(#SvgjsPattern15022)" transform="rotate(245.24, 703.12, 1055.63)"></rect><rect width="516" height="516" clip-path="url(&quot;#SvgjsClipPath15023&quot;)" x="-171.76" y="920.48" fill="url(#SvgjsPattern15024)" transform="rotate(244.14, 86.24, 1178.48)"></rect><rect width="641.24" height="641.24" clip-path="url(&quot;#SvgjsClipPath15025&quot;)" x="1692.64" y="-165.88" fill="url(#SvgjsPattern15026)" transform="rotate(136.66, 2013.26, 154.74)"></rect><rect width="234.24" height="234.24" clip-path="url(&quot;#SvgjsClipPath15027&quot;)" x="1095.94" y="1153.82" fill="url(#SvgjsPattern15028)" transform="rotate(236.44, 1213.06, 1270.94)"></rect><rect width="528" height="528" clip-path="url(&quot;#SvgjsClipPath15029&quot;)" x="1382.18" y="92.91" fill="url(#SvgjsPattern15030)" transform="rotate(39.6, 1646.18, 356.91)"></rect></g><defs><mask id="SvgjsMask15014"><rect width="3000" height="1500" fill="#ffffff"></rect></mask><pattern x="0" y="0" width="893.76" height="10.64" patternUnits="userSpaceOnUse" id="SvgjsPattern15016"><rect width="893.76" height="5.32" x="0" y="0" fill="rgba(105, 105, 105, 1)"></rect><rect width="893.76" height="5.32" x="0" y="5.32" fill="rgba(0, 0, 0, 0)"></rect></pattern><clipPath id="SvgjsClipPath15015"><circle r="223.44" cx="289.75" cy="229.72"></circle></clipPath><pattern x="0" y="0" width="792" height="6" patternUnits="userSpaceOnUse" id="SvgjsPattern15018"><rect width="792" height="3" x="0" y="0" fill="rgba(254, 122, 39, 1)"></rect><rect width="792" height="3" x="0" y="3" fill="rgba(0, 0, 0, 0)"></rect></pattern><clipPath id="SvgjsClipPath15017"><circle r="198" cx="2266.99" cy="385.54"></circle></clipPath><pattern x="0" y="0" width="13.26" height="13.26" patternUnits="userSpaceOnUse" id="SvgjsPattern15020"><path d="M6.63 1L6.63 12.26M1 6.63L12.26 6.63" stroke="rgba(254, 122, 39, 1)" fill="none" stroke-width="1.92"></path></pattern><clipPath id="SvgjsClipPath15019"><circle r="33.15" cx="1687.98" cy="1433"></circle></clipPath><pattern x="0" y="0" width="278.8" height="13.94" patternUnits="userSpaceOnUse" id="SvgjsPattern15022"><rect width="278.8" height="6.97" x="0" y="0" fill="rgba(254, 122, 39, 1)"></rect><rect width="278.8" height="6.97" x="0" y="6.97" fill="rgba(0, 0, 0, 0)"></rect></pattern><clipPath id="SvgjsClipPath15021"><circle r="69.7" cx="703.12" cy="1055.63"></circle></clipPath><pattern x="0" y="0" width="6" height="6" patternUnits="userSpaceOnUse" id="SvgjsPattern15024"><path d="M0 6L3 0L6 6" stroke="rgba(254, 122, 39, 1)" fill="none"></path></pattern><clipPath id="SvgjsClipPath15023"><circle r="129" cx="86.24" cy="1178.48"></circle></clipPath><pattern x="0" y="0" width="7.82" height="7.82" patternUnits="userSpaceOnUse" id="SvgjsPattern15026"><path d="M3.91 1L3.91 6.82M1 3.91L6.82 3.91" stroke="rgba(64, 68, 72, 1)" fill="none" stroke-width="1"></path></pattern><clipPath id="SvgjsClipPath15025"><circle r="160.31" cx="2013.26" cy="154.74"></circle></clipPath><pattern x="0" y="0" width="7.32" height="7.32" patternUnits="userSpaceOnUse" id="SvgjsPattern15028"><path d="M3.66 1L3.66 6.32M1 3.66L6.32 3.66" stroke="rgba(105, 105, 105, 1)" fill="none" stroke-width="2.26"></path></pattern><clipPath id="SvgjsClipPath15027"><circle r="58.56" cx="1213.06" cy="1270.94"></circle></clipPath><pattern x="0" y="0" width="528" height="6" patternUnits="userSpaceOnUse" id="SvgjsPattern15030"><rect width="528" height="3" x="0" y="0" fill="rgba(64, 68, 72, 1)"></rect><rect width="528" height="3" x="0" y="3" fill="rgba(0, 0, 0, 0)"></rect></pattern><clipPath id="SvgjsClipPath15029"><circle r="132" cx="1646.18" cy="356.91"></circle></clipPath></defs></svg>