<svg width="36" height="36" viewBox="0 0 36 36" fill="none" xmlns="http://www.w3.org/2000/svg">
<path d="M3.75 15.4384C3.75 14.2142 4.31058 13.0574 5.27142 12.2989L15.5214 4.20677C16.9747 3.05948 19.0253 3.05948 20.4786 4.20677L30.7286 12.2989C31.6894 13.0574 32.25 14.2142 32.25 15.4384V28.25C32.25 30.4591 30.4591 32.25 28.25 32.25H23.5C22.9477 32.25 22.5 31.8023 22.5 31.25V25.25C22.5 24.1454 21.6046 23.25 20.5 23.25H15.5C14.3954 23.25 13.5 24.1454 13.5 25.25V31.25C13.5 31.8023 13.0523 32.25 12.5 32.25H7.75C5.54086 32.25 3.75 30.4591 3.75 28.25L3.75 15.4384Z" fill="#404448" stroke="#404448" stroke-width="2.25"/>
</svg>
