<svg xmlns="http://www.w3.org/2000/svg" version="1.1" xmlns:xlink="http://www.w3.org/1999/xlink" xmlns:svgjs="http://svgjs.com/svgjs" width="3000" height="1500" preserveAspectRatio="none" viewBox="0 0 3000 1500"><g mask="url(&quot;#SvgjsMask14830&quot;)" fill="none"><rect width="564" height="564" clip-path="url(&quot;#SvgjsClipPath14831&quot;)" x="-104.32" y="122.1" fill="url(#SvgjsPattern14832)" transform="rotate(82.18, 177.68, 404.1)"></rect><circle r="174.39068718257417" cx="1726.73" cy="825.17" stroke="rgba(25, 138, 120, 1)" stroke-width="2.59"></circle><rect width="887.52" height="887.52" clip-path="url(&quot;#SvgjsClipPath14833&quot;)" x="2509.42" y="780.67" fill="url(#SvgjsPattern14834)" transform="rotate(159.34, 2953.18, 1224.43)"></rect><path d="M2720.8 139.59a5.6 5.6 0 1 0-8.96-6.71 5.6 5.6 0 1 0 8.96 6.71zM2708 130a5.6 5.6 0 1 0-8.97-6.71 5.6 5.6 0 1 0 8.97 6.71zM2695.19 120.41a5.6 5.6 0 1 0-8.97-6.71 5.6 5.6 0 1 0 8.97 6.71zM2682.38 110.82a5.6 5.6 0 1 0-8.97-6.71 5.6 5.6 0 1 0 8.97 6.71zM2756.01 145.96a5.6 5.6 0 1 0-8.97-6.71 5.6 5.6 0 1 0 8.97 6.71zM2743.2 136.37a5.6 5.6 0 1 0-8.97-6.71 5.6 5.6 0 1 0 8.97 6.71zM2730.39 126.78a5.6 5.6 0 1 0-8.96-6.71 5.6 5.6 0 1 0 8.96 6.71zM2717.58 117.19a5.6 5.6 0 1 0-8.96-6.71 5.6 5.6 0 1 0 8.96 6.71zM2791.21 152.33a5.6 5.6 0 1 0-8.96-6.71 5.6 5.6 0 1 0 8.96 6.71zM2778.41 142.74a5.6 5.6 0 1 0-8.97-6.71 5.6 5.6 0 1 0 8.97 6.71zM2765.6 133.15a5.6 5.6 0 1 0-8.97-6.71 5.6 5.6 0 1 0 8.97 6.71zM2752.79 123.56a5.6 5.6 0 1 0-8.97-6.71 5.6 5.6 0 1 0 8.97 6.71z" stroke="rgba(105, 105, 105, 1)" stroke-width="2.03" stroke-dasharray="4, 4"></path><rect width="328.64" height="328.64" clip-path="url(&quot;#SvgjsClipPath14835&quot;)" x="-121.11" y="844.47" fill="url(#SvgjsPattern14836)" transform="rotate(307.9, 43.21, 1008.79)"></rect><rect width="804" height="804" clip-path="url(&quot;#SvgjsClipPath14837&quot;)" x="2257.81" y="74.87" fill="url(#SvgjsPattern14838)" transform="rotate(131.37, 2659.81, 476.87)"></rect><path d="M2242.14 32.61a5.6 5.6 0 1 0-8.49-7.31 5.6 5.6 0 1 0 8.49 7.31zM2230.02 22.17a5.6 5.6 0 1 0-8.49-7.31 5.6 5.6 0 1 0 8.49 7.31zM2217.9 11.73a5.6 5.6 0 1 0-8.49-7.32 5.6 5.6 0 1 0 8.49 7.32zM2205.78 1.28a5.6 5.6 0 1 0-8.49-7.31 5.6 5.6 0 1 0 8.49 7.31zM2276.83 41.38a5.6 5.6 0 1 0-8.49-7.31 5.6 5.6 0 1 0 8.49 7.31zM2264.7 30.94a5.6 5.6 0 1 0-8.48-7.31 5.6 5.6 0 1 0 8.48 7.31zM2252.58 20.49a5.6 5.6 0 1 0-8.48-7.31 5.6 5.6 0 1 0 8.48 7.31zM2240.46 10.05a5.6 5.6 0 1 0-8.48-7.31 5.6 5.6 0 1 0 8.48 7.31z" stroke="rgba(105, 105, 105, 1)" stroke-width="2.79" stroke-dasharray="3, 3"></path><path d="M2119.99 121.49L2125.05 133.25 2114.69 140.78 2119.75 152.54 2109.39 160.06 2114.46 171.83 2104.09 179.35M2112.27 119.37L2117.34 131.14 2106.97 138.66 2112.04 150.42 2101.68 157.95 2106.74 169.71 2096.38 177.23M2104.56 117.25L2109.62 129.02 2099.26 136.54 2104.33 148.3 2093.96 155.83 2099.03 167.59 2088.67 175.11" stroke="rgba(64, 68, 72, 1)" stroke-width="1" stroke-dasharray="3, 2"></path><rect width="579.6" height="579.6" clip-path="url(&quot;#SvgjsClipPath14839&quot;)" x="1073.65" y="360.14" fill="url(#SvgjsPattern14840)" transform="rotate(286.5, 1363.45, 649.94)"></rect></g><defs><mask id="SvgjsMask14830"><rect width="3000" height="1500" fill="#ffffff"></rect></mask><pattern x="0" y="0" width="6" height="6" patternUnits="userSpaceOnUse" id="SvgjsPattern14832"><path d="M0 6L3 0L6 6" stroke="rgba(64, 68, 72, 1)" fill="none"></path></pattern><clipPath id="SvgjsClipPath14831"><circle r="141" cx="177.68" cy="404.1"></circle></clipPath><pattern x="0" y="0" width="887.52" height="10.32" patternUnits="userSpaceOnUse" id="SvgjsPattern14834"><rect width="887.52" height="5.16" x="0" y="0" fill="rgba(64, 68, 72, 1)"></rect><rect width="887.52" height="5.16" x="0" y="5.16" fill="rgba(0, 0, 0, 0)"></rect></pattern><clipPath id="SvgjsClipPath14833"><circle r="221.88" cx="2953.18" cy="1224.43"></circle></clipPath><pattern x="0" y="0" width="12.64" height="12.64" patternUnits="userSpaceOnUse" id="SvgjsPattern14836"><path d="M6.32 1L6.32 11.64M1 6.32L11.64 6.32" stroke="rgba(105, 105, 105, 1)" fill="none" stroke-width="2.66"></path></pattern><clipPath id="SvgjsClipPath14835"><circle r="82.16" cx="43.21" cy="1008.79"></circle></clipPath><pattern x="0" y="0" width="6" height="6" patternUnits="userSpaceOnUse" id="SvgjsPattern14838"><path d="M3 1L3 5M1 3L5 3" stroke="rgba(25, 138, 120, 1)" fill="none" stroke-width="1.52"></path></pattern><clipPath id="SvgjsClipPath14837"><circle r="201" cx="2659.81" cy="476.87"></circle></clipPath><pattern x="0" y="0" width="13.8" height="13.8" patternUnits="userSpaceOnUse" id="SvgjsPattern14840"><path d="M6.9 1L6.9 12.8M1 6.9L12.8 6.9" stroke="rgba(25, 138, 120, 1)" fill="none" stroke-width="2.96"></path></pattern><clipPath id="SvgjsClipPath14839"><circle r="144.9" cx="1363.45" cy="649.94"></circle></clipPath></defs></svg>