<svg width="16" height="16" viewBox="0 0 16 16" fill="none" xmlns="http://www.w3.org/2000/svg">
<path d="M11.5843 5.44851L10.8544 5.62107L11.5843 5.44851ZM6.52112 2.75H7.26186V1.25H6.52112V2.75ZM2.08594 9.5V7.25H0.585938V9.5H2.08594ZM0.585938 9.5C0.585938 10.7338 1.57625 11.75 2.81742 11.75V10.25C2.42219 10.25 2.08594 9.92303 2.08594 9.5H0.585938ZM10.9563 6.5C10.9563 8.57988 9.29349 10.25 7.26186 10.25V11.75C10.1394 11.75 12.4563 9.39068 12.4563 6.5H10.9563ZM6.52112 1.25C3.23445 1.25 0.585938 3.9451 0.585938 7.25H2.08594C2.08594 4.75591 4.08039 2.75 6.52112 2.75V1.25ZM15.4193 12.5V10.25H13.9193V12.5H15.4193ZM8.74334 14.75H13.1878V13.25H8.74334V14.75ZM13.9193 12.5C13.9193 12.923 13.583 13.25 13.1878 13.25V14.75C14.429 14.75 15.4193 13.7338 15.4193 12.5H13.9193ZM11.2771 6.13268C12.8311 6.83056 13.9193 8.4094 13.9193 10.25H15.4193C15.4193 7.80546 13.9722 5.69871 11.8916 4.76433L11.2771 6.13268ZM7.26186 2.75C8.99733 2.75 10.4636 3.9678 10.8544 5.62107L12.3142 5.27594C11.7697 2.97307 9.72038 1.25 7.26186 1.25V2.75ZM10.8544 5.62107C10.9209 5.90223 10.9563 6.19642 10.9563 6.5H12.4563C12.4563 6.07942 12.4072 5.66943 12.3142 5.27594L10.8544 5.62107ZM3.8437 11.2472C4.55403 13.282 6.47461 14.75 8.74334 14.75V13.25C7.1418 13.25 5.76982 12.2136 5.25989 10.7528L3.8437 11.2472ZM7.26186 10.25H4.5518V11.75H7.26186V10.25ZM4.5518 10.25H2.81742V11.75H4.5518V10.25Z" fill="#3361FF"/>
</svg>
