<svg width="16" height="16" viewBox="0 0 16 16" fill="none" xmlns="http://www.w3.org/2000/svg">
<path d="M2.0026 4.0026V3.5026C1.72646 3.5026 1.5026 3.72646 1.5026 4.0026H2.0026ZM14.0026 4.0026H14.5026C14.5026 3.72646 14.2787 3.5026 14.0026 3.5026V4.0026ZM4.90719 9.07869C4.76512 9.31548 4.8419 9.62261 5.07869 9.76468C5.31548 9.90676 5.62261 9.82998 5.76468 9.59318L4.90719 9.07869ZM6.05744 8.13344L5.62869 7.87619L6.05744 8.13344ZM9.94777 7.87177L9.51902 7.61452L9.94777 7.87177ZM11.098 6.92652C11.2401 6.68973 11.1633 6.3826 10.9265 6.24052C10.6897 6.09845 10.3826 6.17523 10.2405 6.41202L11.098 6.92652ZM8.5026 12.0026C8.5026 11.7265 8.27875 11.5026 8.0026 11.5026C7.72646 11.5026 7.5026 11.7265 7.5026 12.0026H8.5026ZM7.5026 14.6693C7.5026 14.9454 7.72646 15.1693 8.0026 15.1693C8.27875 15.1693 8.5026 14.9454 8.5026 14.6693H7.5026ZM2.66927 1.83594H13.3359V0.835938H2.66927V1.83594ZM13.3359 3.5026H2.66927V4.5026H13.3359V3.5026ZM2.66927 3.5026C2.20903 3.5026 1.83594 3.12951 1.83594 2.66927H0.835938C0.835938 3.68179 1.65675 4.5026 2.66927 4.5026V3.5026ZM14.1693 2.66927C14.1693 3.12951 13.7962 3.5026 13.3359 3.5026V4.5026C14.3485 4.5026 15.1693 3.68179 15.1693 2.66927H14.1693ZM13.3359 1.83594C13.7962 1.83594 14.1693 2.20903 14.1693 2.66927H15.1693C15.1693 1.65675 14.3485 0.835938 13.3359 0.835938V1.83594ZM2.66927 0.835938C1.65675 0.835938 0.835938 1.65675 0.835938 2.66927H1.83594C1.83594 2.20903 2.20903 1.83594 2.66927 1.83594V0.835938ZM2.0026 4.5026H14.0026V3.5026H2.0026V4.5026ZM13.5026 4.0026V10.6693H14.5026V4.0026H13.5026ZM12.6693 11.5026H3.33594V12.5026H12.6693V11.5026ZM2.5026 10.6693V4.0026H1.5026V10.6693H2.5026ZM3.33594 11.5026C2.8757 11.5026 2.5026 11.1295 2.5026 10.6693H1.5026C1.5026 11.6818 2.32342 12.5026 3.33594 12.5026V11.5026ZM13.5026 10.6693C13.5026 11.1295 13.1295 11.5026 12.6693 11.5026V12.5026C13.6818 12.5026 14.5026 11.6818 14.5026 10.6693H13.5026ZM5.76468 9.59318L6.48618 8.39069L5.62869 7.87619L4.90719 9.07869L5.76468 9.59318ZM10.3765 8.12902L11.098 6.92652L10.2405 6.41202L9.51902 7.61452L10.3765 8.12902ZM7.61217 8.31495C8.34669 9.23311 9.77157 9.13727 10.3765 8.12902L9.51902 7.61452C9.27261 8.02521 8.69223 8.06424 8.39304 7.69026L7.61217 8.31495ZM6.48618 8.39069C6.73259 7.98 7.31298 7.94096 7.61217 8.31495L8.39304 7.69026C7.65851 6.7721 6.23364 6.86794 5.62869 7.87619L6.48618 8.39069ZM7.5026 12.0026V14.6693H8.5026V12.0026H7.5026Z" fill="#222222"/>
</svg>
