<svg width="16" height="16" viewBox="0 0 16 16" fill="none" xmlns="http://www.w3.org/2000/svg">
<path d="M11.5843 5.44851C13.4016 6.26463 14.6693 8.10743 14.6693 10.25V12.5C14.6693 13.3284 14.006 14 13.1878 14H8.74334C6.80821 14 5.16193 12.7478 4.5518 11M11.5843 5.44851C11.1166 3.47044 9.35885 2 7.26186 2H6.52112C3.65742 2 1.33594 4.35051 1.33594 7.25V9.5C1.33594 10.3284 1.99922 11 2.81742 11H4.5518M11.5843 5.44851C11.6641 5.78583 11.7063 6.13792 11.7063 6.5C11.7063 8.98528 9.71646 11 7.26186 11H4.5518" stroke="#222222" stroke-linejoin="round"/>
</svg>
