<svg width="16" height="16" viewBox="0 0 16 16" fill="none" xmlns="http://www.w3.org/2000/svg">
<path d="M2.0026 4.0026V3.2526C1.58839 3.2526 1.2526 3.58839 1.2526 4.0026H2.0026ZM14.0026 4.0026H14.7526C14.7526 3.58839 14.4168 3.2526 14.0026 3.2526V4.0026ZM4.69282 8.95007C4.47971 9.30525 4.59488 9.76595 4.95007 9.97906C5.30525 10.1922 5.76595 10.077 5.97906 9.72181L4.69282 8.95007ZM6.05744 8.13344L5.41432 7.74757L6.05744 8.13344ZM9.94777 7.87177L9.30465 7.4859H9.30465L9.94777 7.87177ZM11.3124 7.05514C11.5255 6.69996 11.4103 6.23926 11.0551 6.02615C10.7 5.81304 10.2393 5.92821 10.0262 6.2834L11.3124 7.05514ZM8.7526 12.0026C8.7526 11.5884 8.41682 11.2526 8.0026 11.2526C7.58839 11.2526 7.2526 11.5884 7.2526 12.0026H8.7526ZM7.2526 14.6693C7.2526 15.0835 7.58839 15.4193 8.0026 15.4193C8.41682 15.4193 8.7526 15.0835 8.7526 14.6693H7.2526ZM2.66927 2.08594H13.3359V0.585938H2.66927V2.08594ZM13.3359 3.2526H2.66927V4.7526H13.3359V3.2526ZM2.66927 3.2526C2.3471 3.2526 2.08594 2.99144 2.08594 2.66927H0.585938C0.585938 3.81986 1.51868 4.7526 2.66927 4.7526V3.2526ZM13.9193 2.66927C13.9193 2.99144 13.6581 3.2526 13.3359 3.2526V4.7526C14.4865 4.7526 15.4193 3.81986 15.4193 2.66927H13.9193ZM13.3359 2.08594C13.6581 2.08594 13.9193 2.3471 13.9193 2.66927H15.4193C15.4193 1.51868 14.4865 0.585938 13.3359 0.585938V2.08594ZM2.66927 0.585938C1.51868 0.585938 0.585938 1.51868 0.585938 2.66927H2.08594C2.08594 2.3471 2.3471 2.08594 2.66927 2.08594V0.585938ZM2.0026 4.7526H14.0026V3.2526H2.0026V4.7526ZM13.2526 4.0026V10.6693H14.7526V4.0026H13.2526ZM12.6693 11.2526H3.33594V12.7526H12.6693V11.2526ZM2.7526 10.6693V4.0026H1.2526V10.6693H2.7526ZM3.33594 11.2526C3.01377 11.2526 2.7526 10.9914 2.7526 10.6693H1.2526C1.2526 11.8199 2.18534 12.7526 3.33594 12.7526V11.2526ZM13.2526 10.6693C13.2526 10.9914 12.9914 11.2526 12.6693 11.2526V12.7526C13.8199 12.7526 14.7526 11.8199 14.7526 10.6693H13.2526ZM5.97906 9.72181L6.70056 8.51931L5.41432 7.74757L4.69282 8.95007L5.97906 9.72181ZM10.5909 8.25764L11.3124 7.05514L10.0262 6.2834L9.30465 7.4859L10.5909 8.25764ZM7.41695 8.47113C8.26031 9.52532 9.89631 9.41528 10.5909 8.25764L9.30465 7.4859C9.14788 7.74719 8.77861 7.77203 8.58826 7.53408L7.41695 8.47113ZM6.70056 8.51931C6.85733 8.25802 7.22659 8.23318 7.41695 8.47113L8.58826 7.53408C7.7449 6.47989 6.1089 6.58992 5.41432 7.74757L6.70056 8.51931ZM7.2526 12.0026V14.6693H8.7526V12.0026H7.2526Z" fill="#3361FF"/>
</svg>
