<svg xmlns="http://www.w3.org/2000/svg" version="1.1" xmlns:xlink="http://www.w3.org/1999/xlink" xmlns:svgjs="http://svgjs.com/svgjs" width="3000" height="1500" preserveAspectRatio="none" viewBox="0 0 3000 1500"><g mask="url(&quot;#SvgjsMask14366&quot;)" fill="none"><path d="M320.72 1097.69 L275.22 1434.4L163.4288642960988 1131.5038642960988z" fill="rgba(254, 122, 39, 1)"></path><rect width="288" height="288" clip-path="url(&quot;#SvgjsClipPath14367&quot;)" x="2382.88" y="842.81" fill="url(#SvgjsPattern14368)" transform="rotate(321.5, 2526.88, 986.81)"></rect><rect width="900" height="900" clip-path="url(&quot;#SvgjsClipPath14369&quot;)" x="1984.39" y="637.1" fill="url(#SvgjsPattern14370)" transform="rotate(81.13, 2434.39, 1087.1)"></rect><rect width="432" height="432" clip-path="url(&quot;#SvgjsClipPath14371&quot;)" x="2028.81" y="-48.96" fill="url(#SvgjsPattern14372)" transform="rotate(168.69, 2244.81, 167.04)"></rect><path d="M2087.78 404.35a5.6 5.6 0 1 0-8.91-6.78 5.6 5.6 0 1 0 8.91 6.78zM2075.05 394.67a5.6 5.6 0 1 0-8.92-6.78 5.6 5.6 0 1 0 8.92 6.78zM2062.31 384.98a5.6 5.6 0 1 0-8.91-6.78 5.6 5.6 0 1 0 8.91 6.78zM2049.58 375.3a5.6 5.6 0 1 0-8.92-6.78 5.6 5.6 0 1 0 8.92 6.78z" fill="rgba(64, 68, 72, 1)"></path><rect width="376.04" height="376.04" clip-path="url(&quot;#SvgjsClipPath14373&quot;)" x="1085.21" y="270.13" fill="url(#SvgjsPattern14374)" transform="rotate(285.64, 1273.23, 458.15)"></rect><circle r="125" cx="1059.51" cy="808.01" stroke="rgba(254, 122, 39, 1)" stroke-width="2.95"></circle><rect width="424.2" height="424.2" clip-path="url(&quot;#SvgjsClipPath14375&quot;)" x="2687.15" y="-129.55" fill="url(#SvgjsPattern14376)" transform="rotate(228.73, 2899.25, 82.55)"></rect><path d="M1127.22 1544.09 L1418.3200000000002 1417.59L1478.989596828591 1687.0595968285909z" fill="rgba(64, 68, 72, 1)"></path></g><defs><mask id="SvgjsMask14366"><rect width="3000" height="1500" fill="#ffffff"></rect></mask><pattern x="0" y="0" width="288" height="6" patternUnits="userSpaceOnUse" id="SvgjsPattern14368"><rect width="288" height="3" x="0" y="0" fill="rgba(64, 68, 72, 1)"></rect><rect width="288" height="3" x="0" y="3" fill="rgba(0, 0, 0, 0)"></rect></pattern><clipPath id="SvgjsClipPath14367"><circle r="72" cx="2526.88" cy="986.81"></circle></clipPath><pattern x="0" y="0" width="900" height="6" patternUnits="userSpaceOnUse" id="SvgjsPattern14370"><rect width="900" height="3" x="0" y="0" fill="rgba(254, 122, 39, 1)"></rect><rect width="900" height="3" x="0" y="3" fill="rgba(0, 0, 0, 0)"></rect></pattern><clipPath id="SvgjsClipPath14369"><circle r="225" cx="2434.39" cy="1087.1"></circle></clipPath><pattern x="0" y="0" width="6" height="6" patternUnits="userSpaceOnUse" id="SvgjsPattern14372"><path d="M3 1L3 5M1 3L5 3" stroke="rgba(255, 255, 255, 0.38)" fill="none" stroke-width="1"></path></pattern><clipPath id="SvgjsClipPath14371"><circle r="108" cx="2244.81" cy="167.04"></circle></clipPath><pattern x="0" y="0" width="11.06" height="11.06" patternUnits="userSpaceOnUse" id="SvgjsPattern14374"><path d="M0 11.06L5.53 0L11.06 11.06" stroke="rgba(254, 122, 39, 1)" fill="none"></path></pattern><clipPath id="SvgjsClipPath14373"><circle r="94.01" cx="1273.23" cy="458.15"></circle></clipPath><pattern x="0" y="0" width="10.1" height="10.1" patternUnits="userSpaceOnUse" id="SvgjsPattern14376"><path d="M0 10.1L5.05 0L10.1 10.1" stroke="rgba(64, 68, 72, 1)" fill="none"></path></pattern><clipPath id="SvgjsClipPath14375"><circle r="106.05" cx="2899.25" cy="82.55"></circle></clipPath></defs></svg>