<svg xmlns="http://www.w3.org/2000/svg" viewBox="0 0 187.04 35.69"><defs><style>.cls-1{fill:#231815;}</style></defs><title>자산 1</title><g id="레이어_2" data-name="레이어 2"><g id="레이어_1-2" data-name="레이어 1"><path class="cls-1" d="M11.52,23.68V14.94c2,0,3-.76,3-2.29s-.77-2.1-2.3-2.1-2.32,1-2.32,2.88V35.21H0V14.45A18,18,0,0,1,.65,9.17,10.5,10.5,0,0,1,2.86,5.32,12.26,12.26,0,0,1,7.25,2.2,13.43,13.43,0,0,1,12.7,1.05a11.67,11.67,0,0,1,8.53,3.42,11.45,11.45,0,0,1,3.45,8.47,10.67,10.67,0,0,1-3.1,8c-1.89,1.87-4.73,2.81-8.54,2.81Z"/><path class="cls-1" d="M39.65,10.35a12.05,12.05,0,0,1,8.87,3.72A12.22,12.22,0,0,1,52.22,23a12.17,12.17,0,0,1-3.75,9,12.34,12.34,0,0,1-9,3.71A12.43,12.43,0,0,1,30.37,32a12.15,12.15,0,0,1-3.76-9,12,12,0,0,1,3.76-9A12.83,12.83,0,0,1,39.65,10.35Zm-.25,9a3.34,3.34,0,0,0-2.49,1.06,3.62,3.62,0,0,0-1,2.6,3.57,3.57,0,0,0,1,2.59,3.29,3.29,0,0,0,2.47,1.07,3.36,3.36,0,0,0,2.51-1.07,3.8,3.8,0,0,0,0-5.19A3.35,3.35,0,0,0,39.4,19.36Z"/><path class="cls-1" d="M69.38,10.62v9.77a3.55,3.55,0,0,0-1.73-.54q-2.49,0-2.49,3.81V35.21H56V21.9a11.94,11.94,0,0,1,2.88-8.41,10,10,0,0,1,7.69-3.14A18.42,18.42,0,0,1,69.38,10.62Z"/><path class="cls-1" d="M80.2,1.88v9.33h4.1v9.64H80.2c0,1.94.31,3.27.92,4S82.84,26,84.47,26v9.6l-1,0a12.4,12.4,0,0,1-5.84-1.44,11.76,11.76,0,0,1-4.41-3.91,14.78,14.78,0,0,1-2.1-8.34v-20Z"/><path class="cls-1" d="M102,16.26v9.57H97.92v9.38H88.79V14.53a13.5,13.5,0,0,1,1.2-6,12.48,12.48,0,0,1,4.6-5.14,11.71,11.71,0,0,1,6.44-2l1,0V11l-.46,0a3.26,3.26,0,0,0-2.68,1.15,5.06,5.06,0,0,0-.94,3.27v.83Z"/><path class="cls-1" d="M117.55,10.35a12.09,12.09,0,0,1,8.88,3.72,12.26,12.26,0,0,1,3.7,8.93,12.17,12.17,0,0,1-3.75,9,12.88,12.88,0,0,1-18.1,0,12.15,12.15,0,0,1-3.76-9,12,12,0,0,1,3.76-9A12.8,12.8,0,0,1,117.55,10.35Zm-.24,9a3.31,3.31,0,0,0-2.49,1.06,3.77,3.77,0,0,0,0,5.19,3.43,3.43,0,0,0,5,0,3.77,3.77,0,0,0,0-5.19A3.34,3.34,0,0,0,117.31,19.36Z"/><path class="cls-1" d="M143.07,1.88V35.21h-9.13V1.88Z"/><path class="cls-1" d="M157.54,10.86V35.21h-9.13V10.86ZM153,0a4.47,4.47,0,0,1,3.21,1.31,4.12,4.12,0,0,1,1.36,3.08,4.15,4.15,0,0,1-1.28,3.13,5,5,0,0,1-6.57,0,4.15,4.15,0,0,1-1.28-3.13,4.15,4.15,0,0,1,1.35-3.08A4.5,4.5,0,0,1,153,0Z"/><path class="cls-1" d="M174.46,10.35a12.09,12.09,0,0,1,8.88,3.72A12.26,12.26,0,0,1,187,23a12.17,12.17,0,0,1-3.75,9,12.88,12.88,0,0,1-18.1,0,12.15,12.15,0,0,1-3.76-9,12,12,0,0,1,3.76-9A12.79,12.79,0,0,1,174.46,10.35Zm-.24,9a3.31,3.31,0,0,0-2.49,1.06,3.77,3.77,0,0,0,0,5.19,3.43,3.43,0,0,0,5,0,3.77,3.77,0,0,0,0-5.19A3.34,3.34,0,0,0,174.22,19.36Z"/></g></g></svg>